<?xml version="1.0" encoding="UTF-8"?>
<!--Generator: Apple Native CoreSVG 149-->
<!DOCTYPE svg
PUBLIC "-//W3C//DTD SVG 1.1//EN"
       "http://www.w3.org/Graphics/SVG/1.1/DTD/svg11.dtd">
<svg version="1.1" xmlns="http://www.w3.org/2000/svg" xmlns:xlink="http://www.w3.org/1999/xlink" width="3300" height="2200">
 <!--glyph: "uni10044E.medium", point size: 100.0, font version: "17.0d9e1", template writer version: "59"-->
 <g id="Notes">
  <rect height="2200" id="artboard" style="fill:white;opacity:1" width="3300" x="0" y="0"/>
  <line style="fill:none;stroke:black;opacity:1;stroke-width:0.5;" x1="263" x2="3036" y1="292" y2="292"/>
  <text style="stroke:none;fill:black;font-family:sans-serif;font-size:13;font-weight:bold;" transform="matrix(1 0 0 1 263 322)">Weight/Scale Variations</text>
  <text style="stroke:none;fill:black;font-family:sans-serif;font-size:13;text-anchor:middle;" transform="matrix(1 0 0 1 559.711 322)">Ultralight</text>
  <text style="stroke:none;fill:black;font-family:sans-serif;font-size:13;text-anchor:middle;" transform="matrix(1 0 0 1 856.422 322)">Thin</text>
  <text style="stroke:none;fill:black;font-family:sans-serif;font-size:13;text-anchor:middle;" transform="matrix(1 0 0 1 1153.13 322)">Light</text>
  <text style="stroke:none;fill:black;font-family:sans-serif;font-size:13;text-anchor:middle;" transform="matrix(1 0 0 1 1449.84 322)">Regular</text>
  <text style="stroke:none;fill:black;font-family:sans-serif;font-size:13;text-anchor:middle;" transform="matrix(1 0 0 1 1746.56 322)">Medium</text>
  <text style="stroke:none;fill:black;font-family:sans-serif;font-size:13;text-anchor:middle;" transform="matrix(1 0 0 1 2043.27 322)">Semibold</text>
  <text style="stroke:none;fill:black;font-family:sans-serif;font-size:13;text-anchor:middle;" transform="matrix(1 0 0 1 2339.98 322)">Bold</text>
  <text style="stroke:none;fill:black;font-family:sans-serif;font-size:13;text-anchor:middle;" transform="matrix(1 0 0 1 2636.69 322)">Heavy</text>
  <text style="stroke:none;fill:black;font-family:sans-serif;font-size:13;text-anchor:middle;" transform="matrix(1 0 0 1 2933.4 322)">Black</text>
  <line style="fill:none;stroke:black;opacity:1;stroke-width:0.5;" x1="263" x2="3036" y1="1903" y2="1903"/>
  <g transform="matrix(1 0 0 1 263 1933)">
   <path d="M9.24805 0.830078Q10.8691 0.830078 12.2949 0.214844Q13.7207-0.400391 14.8096-1.49414Q15.8984-2.58789 16.5186-4.01367Q17.1387-5.43945 17.1387-7.05078Q17.1387-8.66211 16.5186-10.0879Q15.8984-11.5137 14.8047-12.6074Q13.7109-13.7012 12.2852-14.3164Q10.8594-14.9316 9.23828-14.9316Q7.62695-14.9316 6.20117-14.3164Q4.77539-13.7012 3.69141-12.6074Q2.60742-11.5137 1.9873-10.0879Q1.36719-8.66211 1.36719-7.05078Q1.36719-5.43945 1.9873-4.01367Q2.60742-2.58789 3.69629-1.49414Q4.78516-0.400391 6.21094 0.214844Q7.63672 0.830078 9.24805 0.830078ZM9.24805-0.654297Q7.91992-0.654297 6.7627-1.14746Q5.60547-1.64062 4.73145-2.51953Q3.85742-3.39844 3.36426-4.56055Q2.87109-5.72266 2.87109-7.05078Q2.87109-8.37891 3.35938-9.54102Q3.84766-10.7031 4.72168-11.582Q5.5957-12.4609 6.75293-12.9541Q7.91016-13.4473 9.23828-13.4473Q10.5762-13.4473 11.7334-12.9541Q12.8906-12.4609 13.7695-11.582Q14.6484-10.7031 15.1465-9.54102Q15.6445-8.37891 15.6445-7.05078Q15.6445-5.72266 15.1514-4.56055Q14.6582-3.39844 13.7842-2.51953Q12.9102-1.64062 11.748-1.14746Q10.5859-0.654297 9.24805-0.654297ZM5.83984-7.04102Q5.83984-6.71875 6.04492-6.51855Q6.25-6.31836 6.5918-6.31836L8.50586-6.31836L8.50586-4.39453Q8.50586-4.0625 8.70605-3.85742Q8.90625-3.65234 9.22852-3.65234Q9.56055-3.65234 9.76562-3.85742Q9.9707-4.0625 9.9707-4.39453L9.9707-6.31836L11.8945-6.31836Q12.2266-6.31836 12.4316-6.51855Q12.6367-6.71875 12.6367-7.04102Q12.6367-7.37305 12.4316-7.57812Q12.2266-7.7832 11.8945-7.7832L9.9707-7.7832L9.9707-9.69727Q9.9707-10.0391 9.76562-10.2441Q9.56055-10.4492 9.22852-10.4492Q8.90625-10.4492 8.70605-10.2441Q8.50586-10.0391 8.50586-9.69727L8.50586-7.7832L6.5918-7.7832Q6.25-7.7832 6.04492-7.57812Q5.83984-7.37305 5.83984-7.04102Z"/>
  </g>
  <g transform="matrix(1 0 0 1 281.867 1933)">
   <path d="M11.709 2.91016Q13.75 2.91016 15.5518 2.12891Q17.3535 1.34766 18.7305-0.0292969Q20.1074-1.40625 20.8887-3.20801Q21.6699-5.00977 21.6699-7.05078Q21.6699-9.0918 20.8887-10.8936Q20.1074-12.6953 18.7305-14.0723Q17.3535-15.4492 15.5469-16.2305Q13.7402-17.0117 11.6992-17.0117Q9.6582-17.0117 7.85645-16.2305Q6.05469-15.4492 4.68262-14.0723Q3.31055-12.6953 2.5293-10.8936Q1.74805-9.0918 1.74805-7.05078Q1.74805-5.00977 2.5293-3.20801Q3.31055-1.40625 4.6875-0.0292969Q6.06445 1.34766 7.86621 2.12891Q9.66797 2.91016 11.709 2.91016ZM11.709 1.25Q9.98047 1.25 8.47656 0.605469Q6.97266-0.0390625 5.83496-1.17676Q4.69727-2.31445 4.05762-3.81836Q3.41797-5.32227 3.41797-7.05078Q3.41797-8.7793 4.05762-10.2832Q4.69727-11.7871 5.83008-12.9297Q6.96289-14.0723 8.4668-14.7119Q9.9707-15.3516 11.6992-15.3516Q13.4277-15.3516 14.9316-14.7119Q16.4355-14.0723 17.5781-12.9297Q18.7207-11.7871 19.3652-10.2832Q20.0098-8.7793 20.0098-7.05078Q20.0098-5.32227 19.3701-3.81836Q18.7305-2.31445 17.5928-1.17676Q16.4551-0.0390625 14.9463 0.605469Q13.4375 1.25 11.709 1.25ZM7.39258-7.04102Q7.39258-6.68945 7.62695-6.46484Q7.86133-6.24023 8.23242-6.24023L10.8789-6.24023L10.8789-3.57422Q10.8789-3.21289 11.1035-2.9834Q11.3281-2.75391 11.6797-2.75391Q12.0508-2.75391 12.2852-2.9834Q12.5195-3.21289 12.5195-3.57422L12.5195-6.24023L15.1758-6.24023Q15.5371-6.24023 15.7715-6.46484Q16.0059-6.68945 16.0059-7.04102Q16.0059-7.41211 15.7715-7.6416Q15.5371-7.87109 15.1758-7.87109L12.5195-7.87109L12.5195-10.5176Q12.5195-10.8984 12.2852-11.1279Q12.0508-11.3574 11.6797-11.3574Q11.3281-11.3574 11.1035-11.1279Q10.8789-10.8984 10.8789-10.5176L10.8789-7.87109L8.23242-7.87109Q7.85156-7.87109 7.62207-7.6416Q7.39258-7.41211 7.39258-7.04102Z"/>
  </g>
  <g transform="matrix(1 0 0 1 305.646 1933)">
   <path d="M14.9707 5.66406Q17.0605 5.66406 18.96 5.01465Q20.8594 4.36523 22.4512 3.19336Q24.043 2.02148 25.2197 0.429688Q26.3965-1.16211 27.0459-3.06641Q27.6953-4.9707 27.6953-7.05078Q27.6953-9.14062 27.0459-11.04Q26.3965-12.9395 25.2197-14.5312Q24.043-16.123 22.4512-17.2998Q20.8594-18.4766 18.9551-19.126Q17.0508-19.7754 14.9609-19.7754Q12.8711-19.7754 10.9717-19.126Q9.07227-18.4766 7.48535-17.2998Q5.89844-16.123 4.72168-14.5312Q3.54492-12.9395 2.90039-11.04Q2.25586-9.14062 2.25586-7.05078Q2.25586-4.9707 2.90527-3.06641Q3.55469-1.16211 4.72656 0.429688Q5.89844 2.02148 7.49023 3.19336Q9.08203 4.36523 10.9814 5.01465Q12.8809 5.66406 14.9707 5.66406ZM14.9707 3.84766Q13.1641 3.84766 11.5283 3.2959Q9.89258 2.74414 8.53516 1.74805Q7.17773 0.751953 6.17676-0.610352Q5.17578-1.97266 4.62891-3.6084Q4.08203-5.24414 4.08203-7.05078Q4.08203-8.86719 4.62891-10.5029Q5.17578-12.1387 6.17188-13.501Q7.16797-14.8633 8.52539-15.8594Q9.88281-16.8555 11.5186-17.4023Q13.1543-17.9492 14.9609-17.9492Q16.7773-17.9492 18.4131-17.4023Q20.0488-16.8555 21.4111-15.8594Q22.7734-14.8633 23.7695-13.501Q24.7656-12.1387 25.3174-10.5029Q25.8691-8.86719 25.8691-7.05078Q25.8789-5.24414 25.332-3.6084Q24.7852-1.97266 23.7842-0.610352Q22.7832 0.751953 21.4209 1.74805Q20.0586 2.74414 18.4229 3.2959Q16.7871 3.84766 14.9707 3.84766ZM9.45312-7.04102Q9.45312-6.66016 9.71191-6.41113Q9.9707-6.16211 10.3711-6.16211L14.0625-6.16211L14.0625-2.46094Q14.0625-2.06055 14.3115-1.80664Q14.5605-1.55273 14.9414-1.55273Q15.3516-1.55273 15.6055-1.80664Q15.8594-2.06055 15.8594-2.46094L15.8594-6.16211L19.5605-6.16211Q19.9609-6.16211 20.2148-6.41113Q20.4688-6.66016 20.4688-7.04102Q20.4688-7.45117 20.2148-7.70508Q19.9609-7.95898 19.5605-7.95898L15.8594-7.95898L15.8594-11.6504Q15.8594-12.0605 15.6055-12.3145Q15.3516-12.5684 14.9414-12.5684Q14.5605-12.5684 14.3115-12.3096Q14.0625-12.0508 14.0625-11.6504L14.0625-7.95898L10.3711-7.95898Q9.96094-7.95898 9.70703-7.70508Q9.45312-7.45117 9.45312-7.04102Z"/>
  </g>
  <text style="stroke:none;fill:black;font-family:sans-serif;font-size:13;font-weight:bold;" transform="matrix(1 0 0 1 263 1953)">Design Variations</text>
  <text style="stroke:none;fill:black;font-family:sans-serif;font-size:13;" transform="matrix(1 0 0 1 263 1971)">Symbols are supported in up to nine weights and three scales.</text>
  <text style="stroke:none;fill:black;font-family:sans-serif;font-size:13;" transform="matrix(1 0 0 1 263 1989)">For optimal layout with text and other symbols, vertically align</text>
  <text style="stroke:none;fill:black;font-family:sans-serif;font-size:13;" transform="matrix(1 0 0 1 263 2007)">symbols with the adjacent text.</text>
  <line style="fill:none;stroke:#00AEEF;stroke-width:0.5;opacity:1.0;" x1="776" x2="776" y1="1919" y2="1933"/>
  <g transform="matrix(1 0 0 1 776 1933)">
   <path d="M3.31055 0.15625Q3.70117 0.15625 3.91602-0.00976562Q4.13086-0.175781 4.26758-0.585938L5.52734-4.0332L11.2891-4.0332L12.5488-0.585938Q12.6855-0.175781 12.9004-0.00976562Q13.1152 0.15625 13.4961 0.15625Q13.8867 0.15625 14.1162-0.0585938Q14.3457-0.273438 14.3457-0.644531Q14.3457-0.869141 14.2383-1.17188L9.6582-13.3691Q9.48242-13.8184 9.17969-14.043Q8.87695-14.2676 8.4082-14.2676Q7.5-14.2676 7.17773-13.3789L2.59766-1.16211Q2.49023-0.859375 2.49023-0.634766Q2.49023-0.263672 2.70996-0.0537109Q2.92969 0.15625 3.31055 0.15625ZM6.00586-5.51758L8.37891-12.0898L8.42773-12.0898L10.8008-5.51758Z"/>
  </g>
  <line style="fill:none;stroke:#00AEEF;stroke-width:0.5;opacity:1.0;" x1="793.197" x2="793.197" y1="1919" y2="1933"/>
  <text style="stroke:none;fill:black;font-family:sans-serif;font-size:13;font-weight:bold;" transform="matrix(1 0 0 1 776 1953)">Margins</text>
  <text style="stroke:none;fill:black;font-family:sans-serif;font-size:13;" transform="matrix(1 0 0 1 776 1971)">Leading and trailing margins on the left and right side of each symbol</text>
  <text style="stroke:none;fill:black;font-family:sans-serif;font-size:13;" transform="matrix(1 0 0 1 776 1989)">can be adjusted by modifying the x-location of the margin guidelines.</text>
  <text style="stroke:none;fill:black;font-family:sans-serif;font-size:13;" transform="matrix(1 0 0 1 776 2007)">Modifications are automatically applied proportionally to all</text>
  <text style="stroke:none;fill:black;font-family:sans-serif;font-size:13;" transform="matrix(1 0 0 1 776 2025)">scales and weights.</text>
  <g transform="matrix(1 0 0 1 1289 1933)">
   <path d="M2.8418 1.86523L4.54102 3.57422Q5.18555 4.22852 5.90332 4.17969Q6.62109 4.13086 7.31445 3.35938L18.0078-8.42773L17.041-9.4043L6.42578 2.27539Q6.16211 2.57812 5.89355 2.61719Q5.625 2.65625 5.27344 2.30469L4.10156 1.14258Q3.75 0.791016 3.79395 0.522461Q3.83789 0.253906 4.14062-0.0195312L15.6152-10.8203L14.6387-11.7871L3.04688-0.898438Q2.30469-0.214844 2.25098 0.498047Q2.19727 1.21094 2.8418 1.86523ZM9.25781-16.3281Q8.94531-16.0254 8.90625-15.6348Q8.86719-15.2441 9.04297-14.9512Q9.21875-14.6777 9.55566-14.541Q9.89258-14.4043 10.3809-14.5215Q11.4746-14.7754 12.5977-14.7314Q13.7207-14.6875 14.7949-13.9844L14.209-12.5293Q13.9551-11.9043 14.0674-11.4404Q14.1797-10.9766 14.5801-10.5664L16.875-8.25195Q17.2363-7.88086 17.5781-7.82227Q17.9199-7.76367 18.3398-7.8418L19.4043-8.03711L20.0684-7.36328L20.0293-6.80664Q20-6.43555 20.1221-6.12305Q20.2441-5.81055 20.6055-5.44922L21.3672-4.70703Q21.7285-4.3457 22.1533-4.33105Q22.5781-4.31641 22.9297-4.66797L25.8398-7.58789Q26.1914-7.93945 26.1816-8.35449Q26.1719-8.76953 25.8105-9.13086L25.0391-9.89258Q24.6875-10.2539 24.3799-10.3857Q24.0723-10.5176 23.7109-10.4883L23.1348-10.4395L22.4902-11.0742L22.7344-12.1973Q22.832-12.6172 22.6953-12.9834Q22.5586-13.3496 22.1191-13.7891L19.9219-15.9766Q18.6719-17.2168 17.2607-17.8369Q15.8496-18.457 14.4189-18.4814Q12.9883-18.5059 11.665-17.959Q10.3418-17.4121 9.25781-16.3281ZM10.752-15.957Q11.6602-16.6211 12.7002-16.9043Q13.7402-17.1875 14.8047-17.085Q15.8691-16.9824 16.8701-16.5137Q17.8711-16.0449 18.7012-15.2051L21.1328-12.793Q21.3086-12.6172 21.3525-12.4512Q21.3965-12.2852 21.3379-12.0312L21.0156-10.5469L22.5195-9.0625L23.5059-9.12109Q23.6914-9.13086 23.7891-9.09668Q23.8867-9.0625 24.0332-8.91602L24.6094-8.33984L22.168-5.89844L21.5918-6.47461Q21.4453-6.62109 21.4062-6.71875Q21.3672-6.81641 21.377-7.01172L21.4453-7.98828L19.9512-9.47266L18.4277-9.21875Q18.1836-9.16992 18.042-9.2041Q17.9004-9.23828 17.7148-9.41406L15.7129-11.416Q15.5176-11.5918 15.4932-11.7529Q15.4688-11.9141 15.5859-12.1875L16.4648-14.2773Q15.293-15.3711 13.8281-15.791Q12.3633-16.2109 10.8398-15.7617Q10.7227-15.7324 10.6885-15.8057Q10.6543-15.8789 10.752-15.957Z"/>
  </g>
  <text style="stroke:none;fill:black;font-family:sans-serif;font-size:13;font-weight:bold;" transform="matrix(1 0 0 1 1289 1953)">Exporting</text>
  <text style="stroke:none;fill:black;font-family:sans-serif;font-size:13;" transform="matrix(1 0 0 1 1289 1971)">Symbols should be outlined when exporting to ensure the</text>
  <text style="stroke:none;fill:black;font-family:sans-serif;font-size:13;" transform="matrix(1 0 0 1 1289 1989)">design is preserved when submitting to Xcode.</text>
  <text id="template-version" style="stroke:none;fill:black;font-family:sans-serif;font-size:13;text-anchor:end;" transform="matrix(1 0 0 1 3036 1933)">Template v.2.0</text>
  <text style="stroke:none;fill:black;font-family:sans-serif;font-size:13;text-anchor:end;" transform="matrix(1 0 0 1 3036 1951)">Requires Xcode 13 or greater</text>
  <text id="descriptive-name" style="stroke:none;fill:black;font-family:sans-serif;font-size:13;text-anchor:end;" transform="matrix(1 0 0 1 3036 1969)">Generated from plus.app.fill</text>
  <text style="stroke:none;fill:black;font-family:sans-serif;font-size:13;text-anchor:end;" transform="matrix(1 0 0 1 3036 1987)">Typeset at 100 points</text>
  <text style="stroke:none;fill:black;font-family:sans-serif;font-size:13;" transform="matrix(1 0 0 1 263 726)">Small</text>
  <text style="stroke:none;fill:black;font-family:sans-serif;font-size:13;" transform="matrix(1 0 0 1 263 1156)">Medium</text>
  <text style="stroke:none;fill:black;font-family:sans-serif;font-size:13;" transform="matrix(1 0 0 1 263 1586)">Large</text>
 </g>
 <g id="Guides">
  <g id="H-reference" style="fill:#27AAE1;stroke:none;" transform="matrix(1 0 0 1 339 696)">
   <path d="M0.976562 0L3.66211 0L29.3457-67.1387L30.0293-67.1387L30.0293-70.459L28.125-70.459ZM11.6699-24.4629L46.9727-24.4629L46.2402-26.709L12.4512-26.709ZM55.127 0L57.7637 0L30.6152-70.459L29.4434-70.459L29.4434-67.1387Z"/>
  </g>
  <line id="Baseline-S" style="fill:none;stroke:#27AAE1;opacity:1;stroke-width:0.5;" x1="263" x2="3036" y1="696" y2="696"/>
  <line id="Capline-S" style="fill:none;stroke:#27AAE1;opacity:1;stroke-width:0.5;" x1="263" x2="3036" y1="625.541" y2="625.541"/>
  <g id="H-reference" style="fill:#27AAE1;stroke:none;" transform="matrix(1 0 0 1 339 1126)">
   <path d="M0.976562 0L3.66211 0L29.3457-67.1387L30.0293-67.1387L30.0293-70.459L28.125-70.459ZM11.6699-24.4629L46.9727-24.4629L46.2402-26.709L12.4512-26.709ZM55.127 0L57.7637 0L30.6152-70.459L29.4434-70.459L29.4434-67.1387Z"/>
  </g>
  <line id="Baseline-M" style="fill:none;stroke:#27AAE1;opacity:1;stroke-width:0.5;" x1="263" x2="3036" y1="1126" y2="1126"/>
  <line id="Capline-M" style="fill:none;stroke:#27AAE1;opacity:1;stroke-width:0.5;" x1="263" x2="3036" y1="1055.54" y2="1055.54"/>
  <g id="H-reference" style="fill:#27AAE1;stroke:none;" transform="matrix(1 0 0 1 339 1556)">
   <path d="M0.976562 0L3.66211 0L29.3457-67.1387L30.0293-67.1387L30.0293-70.459L28.125-70.459ZM11.6699-24.4629L46.9727-24.4629L46.2402-26.709L12.4512-26.709ZM55.127 0L57.7637 0L30.6152-70.459L29.4434-70.459L29.4434-67.1387Z"/>
  </g>
  <line id="Baseline-L" style="fill:none;stroke:#27AAE1;opacity:1;stroke-width:0.5;" x1="263" x2="3036" y1="1556" y2="1556"/>
  <line id="Capline-L" style="fill:none;stroke:#27AAE1;opacity:1;stroke-width:0.5;" x1="263" x2="3036" y1="1485.54" y2="1485.54"/>
  <line id="left-margin" style="fill:none;stroke:#00AEEF;stroke-width:0.5;opacity:1.0;" x1="1392.96" x2="1392.96" y1="1030.79" y2="1150.12"/>
  <line id="right-margin" style="fill:none;stroke:#00AEEF;stroke-width:0.5;opacity:1.0;" x1="1506.73" x2="1506.73" y1="1030.79" y2="1150.12"/>
 </g>
 <g id="Symbols">
  <g id="Black-L" transform="matrix(1 0 0 1 2856.4 1556)">
   <path d="M129.248-87.4023Q125.879-90.7715 121.655-92.6758Q117.432-94.5801 112.085-95.3857Q106.738-96.1914 99.8535-96.1914L54.1504-96.1914Q43.8477-96.1914 36.8408-94.3359Q29.834-92.4805 24.7559-87.4023Q19.6777-82.373 17.8711-75.415Q16.0645-68.457 16.0645-58.1055L16.0645-12.3535Q16.0645-5.46875 16.8213-0.0976562Q17.5781 5.27344 19.4824 9.44824Q21.3867 13.623 24.7559 16.9434Q28.1738 20.3125 32.373 22.2168Q36.5723 24.1211 41.9434 24.9268Q47.3145 25.7324 54.1504 25.7324L99.8535 25.7324Q106.738 25.7324 112.109 24.9268Q117.48 24.1211 121.68 22.2168Q125.879 20.3125 129.248 16.9434Q132.617 13.5742 134.521 9.39941Q136.426 5.22461 137.183-0.12207Q137.939-5.46875 137.939-12.3535L137.939-58.1055Q137.939-64.9902 137.183-70.3613Q136.426-75.7324 134.521-79.9072Q132.617-84.082 129.248-87.4023ZM48.291-35.2539Q48.291-39.0625 50.7324-41.5771Q53.1738-44.0918 56.8848-44.0918L68.2617-44.0918L68.2617-55.4199Q68.2617-59.1309 70.752-61.5967Q73.2422-64.0625 77.002-64.0625Q80.8105-64.0625 83.3252-61.5967Q85.8398-59.1309 85.8398-55.4199L85.8398-44.0918L97.2168-44.0918Q100.879-44.0918 103.32-41.5771Q105.762-39.0625 105.762-35.2539Q105.762-31.4941 103.32-29.0039Q100.879-26.5137 97.2168-26.5137L85.8398-26.5137L85.8398-15.1367Q85.8398-11.4258 83.3252-8.98438Q80.8105-6.54297 77.002-6.54297Q73.2422-6.54297 70.752-8.98438Q68.2617-11.4258 68.2617-15.1367L68.2617-26.5137L56.8848-26.5137Q53.1738-26.5137 50.7324-29.0039Q48.291-31.4941 48.291-35.2539Z"/>
  </g>
  <g id="Heavy-L" transform="matrix(1 0 0 1 2560.69 1556)">
   <path d="M127.588-86.7676Q124.316-90.0391 120.19-91.8701Q116.064-93.7012 110.864-94.4336Q105.664-95.166 99.0723-95.166L52.832-95.166Q43.0664-95.166 36.2061-93.4326Q29.3457-91.6992 24.4141-86.7676Q19.4336-81.8359 17.749-75.0488Q16.0645-68.2617 16.0645-58.3984L16.0645-12.1582Q16.0645-5.56641 16.7725-0.341797Q17.4805 4.88281 19.2871 8.95996Q21.0938 13.0371 24.3652 16.3086Q27.7344 19.5801 31.8359 21.4111Q35.9375 23.2422 41.1621 23.9746Q46.3867 24.707 52.9297 24.707L99.0723 24.707Q105.664 24.707 110.864 23.9746Q116.064 23.2422 120.19 21.4111Q124.316 19.5801 127.588 16.3086Q130.908 12.9883 132.715 8.91113Q134.521 4.83398 135.229-0.366211Q135.938-5.56641 135.938-12.1582L135.938-58.3496Q135.938-64.9414 135.229-70.1416Q134.521-75.3418 132.715-79.4189Q130.908-83.4961 127.588-86.7676ZM47.4121-35.2539Q47.4121-38.6719 49.585-40.8936Q51.7578-43.1152 55.0781-43.1152L68.2617-43.1152L68.2617-56.25Q68.2617-59.5703 70.459-61.7676Q72.6562-63.9648 76.0254-63.9648Q79.3945-63.9648 81.6406-61.7676Q83.8867-59.5703 83.8867-56.25L83.8867-43.1152L97.0215-43.1152Q100.293-43.1152 102.49-40.8936Q104.688-38.6719 104.688-35.2539Q104.688-31.8848 102.49-29.6875Q100.293-27.4902 97.0215-27.4902L83.8867-27.4902L83.8867-14.3555Q83.8867-11.0352 81.6406-8.8623Q79.3945-6.68945 76.0254-6.68945Q72.6562-6.68945 70.459-8.8623Q68.2617-11.0352 68.2617-14.3555L68.2617-27.4902L55.0781-27.4902Q51.7578-27.4902 49.585-29.6875Q47.4121-31.8848 47.4121-35.2539Z"/>
  </g>
  <g id="Bold-L" transform="matrix(1 0 0 1 2265.1 1556)">
   <path d="M125.781-86.084Q122.559-89.2578 118.53-90.9912Q114.502-92.7246 109.497-93.4082Q104.492-94.0918 98.2422-94.0918L51.3672-94.0918Q42.1875-94.0918 35.498-92.4805Q28.8086-90.8691 24.0234-86.0352Q19.1895-81.2988 17.627-74.6582Q16.0645-68.0176 16.0645-58.7891L16.0645-11.9141Q16.0645-5.66406 16.7236-0.610352Q17.3828 4.44336 19.0918 8.42285Q20.8008 12.4023 23.9746 15.5762Q27.2461 18.7988 31.25 20.5078Q35.2539 22.2168 40.2832 22.9004Q45.3125 23.584 51.5625 23.584L98.2422 23.584Q104.492 23.584 109.521 22.9004Q114.551 22.2168 118.579 20.5078Q122.607 18.7988 125.781 15.5762Q128.955 12.4023 130.688 8.39844Q132.422 4.39453 133.057-0.634766Q133.691-5.66406 133.691-11.9141L133.691-58.5938Q133.691-64.8438 133.057-69.873Q132.422-74.9023 130.688-78.9062Q128.955-82.9102 125.781-86.084ZM46.3867-35.2539Q46.3867-38.2324 48.2666-40.1367Q50.1465-42.041 53.0762-42.041L68.2129-42.041L68.2129-57.1777Q68.2129-60.0586 70.0928-61.9629Q71.9727-63.8672 74.8535-63.8672Q77.7832-63.8672 79.7119-61.9629Q81.6406-60.0586 81.6406-57.1777L81.6406-42.041L96.7773-42.041Q99.6582-42.041 101.538-40.1367Q103.418-38.2324 103.418-35.2539Q103.418-32.373 101.538-30.4932Q99.6582-28.6133 96.7773-28.6133L81.6406-28.6133L81.6406-13.4766Q81.6406-10.5957 79.7119-8.71582Q77.7832-6.83594 74.8535-6.83594Q71.9727-6.83594 70.0928-8.71582Q68.2129-10.5957 68.2129-13.4766L68.2129-28.6133L53.0762-28.6133Q50.1953-28.6133 48.291-30.4932Q46.3867-32.373 46.3867-35.2539Z"/>
  </g>
  <g id="Semibold-L" transform="matrix(1 0 0 1 1969.17 1556)">
   <path d="M124.512-85.5469Q121.338-88.7207 117.383-90.3809Q113.428-92.041 108.545-92.6758Q103.662-93.3105 97.6074-93.3105L50.3418-93.3105Q41.5527-93.3105 34.9854-91.7725Q28.418-90.2344 23.7305-85.5469Q18.9941-80.8594 17.5293-74.3408Q16.0645-67.8223 16.0645-58.9844L16.0645-11.7188Q16.0645-5.71289 16.6748-0.805664Q17.2852 4.10156 18.9209 8.03223Q20.5566 11.9629 23.6816 15.0879Q26.8555 18.2129 30.8105 19.873Q34.7656 21.5332 39.6729 22.168Q44.5801 22.8027 50.5859 22.8027L97.6074 22.8027Q103.662 22.8027 108.545 22.168Q113.428 21.5332 117.407 19.873Q121.387 18.2129 124.512 15.0879Q127.637 11.9629 129.272 8.03223Q130.908 4.10156 131.519-0.805664Q132.129-5.71289 132.129-11.7188L132.129-58.7891Q132.129-64.7949 131.519-69.7021Q130.908-74.6094 129.272-78.54Q127.637-82.4707 124.512-85.5469ZM45.7031-35.2051Q45.7031-37.8418 47.3877-39.5508Q49.0723-41.2598 51.6602-41.2598L68.1641-41.2598L68.1641-57.7148Q68.1641-60.3027 69.8242-62.0117Q71.4844-63.7207 74.0723-63.7207Q76.709-63.7207 78.3936-62.0361Q80.0781-60.3516 80.0781-57.7148L80.0781-41.2598L96.6309-41.2598Q99.1699-41.2598 100.854-39.5508Q102.539-37.8418 102.539-35.2051Q102.539-32.666 100.854-31.0059Q99.1699-29.3457 96.6309-29.3457L80.0781-29.3457L80.0781-12.793Q80.0781-10.2051 78.3936-8.54492Q76.709-6.88477 74.0723-6.88477Q71.4844-6.88477 69.8242-8.54492Q68.1641-10.2051 68.1641-12.793L68.1641-29.3457L51.6602-29.3457Q49.0723-29.3457 47.3877-31.0059Q45.7031-32.666 45.7031-35.2051Z"/>
  </g>
  <g id="Medium-L" transform="matrix(1 0 0 1 1673.04 1556)">
   <path d="M123.584-85.2051Q120.41-88.2812 116.528-89.917Q112.646-91.5527 107.837-92.1387Q103.027-92.7246 97.168-92.7246L49.6094-92.7246Q41.0645-92.7246 34.6191-91.2598Q28.1738-89.7949 23.5352-85.1562Q18.8965-80.5664 17.4805-74.1211Q16.0645-67.6758 16.0645-59.1797L16.0645-11.5723Q16.0645-5.76172 16.6504-0.952148Q17.2363 3.85742 18.7988 7.73926Q20.3613 11.6211 23.4863 14.6973Q26.6113 17.7734 30.5176 19.3848Q34.4238 20.9961 39.2334 21.6064Q44.043 22.2168 49.8535 22.2168L97.168 22.2168Q103.027 22.2168 107.837 21.6064Q112.646 20.9961 116.553 19.3848Q120.459 17.7734 123.584 14.6973Q126.611 11.6211 128.223 7.73926Q129.834 3.85742 130.396-0.952148Q130.957-5.76172 130.957-11.5723L130.957-58.8867Q130.957-64.7461 130.396-69.5557Q129.834-74.3652 128.223-78.2471Q126.611-82.1289 123.584-85.2051ZM45.166-35.2051Q45.166-37.5977 46.6797-39.1357Q48.1934-40.6738 50.5859-40.6738L68.1641-40.6738L68.1641-58.2031Q68.1641-60.5469 69.6533-62.1094Q71.1426-63.6719 73.4863-63.6719Q75.8301-63.6719 77.3682-62.1338Q78.9062-60.5957 78.9062-58.2031L78.9062-40.6738L96.4844-40.6738Q98.8281-40.6738 100.342-39.1357Q101.855-37.5977 101.855-35.2051Q101.855-32.9102 100.342-31.4209Q98.8281-29.9316 96.4844-29.9316L78.9062-29.9316L78.9062-12.3047Q78.9062-9.96094 77.3682-8.44727Q75.8301-6.93359 73.4863-6.93359Q71.1426-6.93359 69.6533-8.44727Q68.1641-9.96094 68.1641-12.3047L68.1641-29.9316L50.5859-29.9316Q48.2422-29.9316 46.7041-31.4209Q45.166-32.9102 45.166-35.2051Z"/>
  </g>
  <g id="Regular-L" transform="matrix(1 0 0 1 1377.09 1556)">
   <path d="M122.314-84.7168Q119.238-87.7441 115.405-89.3066Q111.572-90.8691 106.885-91.4062Q102.197-91.9434 96.582-91.9434L48.584-91.9434Q40.4785-91.9434 34.1309-90.5762Q27.7832-89.209 23.2422-84.668Q18.7012-80.1758 17.3828-73.8525Q16.0645-67.5293 16.0645-59.4238L16.0645-11.4258Q16.0645-5.81055 16.6016-1.12305Q17.1387 3.56445 18.6523 7.37305Q20.166 11.1816 23.1934 14.209Q26.2695 17.2363 30.1025 18.7744Q33.9355 20.3125 38.623 20.874Q43.3105 21.4355 48.9258 21.4355L96.582 21.4355Q102.197 21.4355 106.885 20.874Q111.572 20.3125 115.43 18.7744Q119.287 17.2363 122.314 14.209Q125.293 11.1816 126.831 7.37305Q128.369 3.56445 128.906-1.12305Q129.443-5.81055 129.443-11.4258L129.443-59.082Q129.443-64.6973 128.906-69.3848Q128.369-74.0723 126.831-77.8809Q125.293-81.6895 122.314-84.7168ZM44.4824-35.2051Q44.4824-37.3047 45.8008-38.623Q47.1191-39.9414 49.2188-39.9414L68.1152-39.9414L68.1152-58.8379Q68.1152-60.8887 69.3848-62.2314Q70.6543-63.5742 72.7051-63.5742Q74.7559-63.5742 76.0742-62.2559Q77.3926-60.9375 77.3926-58.8379L77.3926-39.9414L96.3379-39.9414Q98.3887-39.9414 99.707-38.623Q101.025-37.3047 101.025-35.2051Q101.025-33.2031 99.707-31.9336Q98.3887-30.6641 96.3379-30.6641L77.3926-30.6641L77.3926-11.7188Q77.3926-9.66797 76.0742-8.34961Q74.7559-7.03125 72.7051-7.03125Q70.6543-7.03125 69.3848-8.34961Q68.1152-9.66797 68.1152-11.7188L68.1152-30.6641L49.2188-30.6641Q47.168-30.6641 45.8252-31.9336Q44.4824-33.2031 44.4824-35.2051Z"/>
  </g>
  <g id="Light-L" transform="matrix(1 0 0 1 1081.26 1556)">
   <path d="M120.85-84.082Q118.066-86.8652 114.502-88.3789Q110.938-89.8926 106.348-90.4541Q101.758-91.0156 95.8984-91.0156L47.3633-91.0156Q39.0137-91.0156 33.0566-89.5996Q27.0996-88.1836 22.9492-84.0332Q18.7988-79.8828 17.4316-73.999Q16.0645-68.1152 16.0645-59.7168L16.0645-11.1816Q16.0645-5.27344 16.626-0.683594Q17.1875 3.90625 18.6523 7.42188Q20.1172 10.9375 22.9004 13.6719Q25.7324 16.4551 29.2725 17.9443Q32.8125 19.4336 37.4023 20.0195Q41.9922 20.6055 47.9004 20.6055L95.8984 20.6055Q101.758 20.6055 106.348 20.0195Q110.938 19.4336 114.526 17.9443Q118.115 16.4551 120.85 13.6719Q123.584 10.9375 125.073 7.39746Q126.562 3.85742 127.124-0.708008Q127.686-5.27344 127.686-11.1816L127.686-59.1797Q127.686-65.0879 127.124-69.6777Q126.562-74.2676 125.073-77.8076Q123.584-81.3477 120.85-84.082ZM44.1895-35.2051Q44.1895-36.7676 45.1904-37.793Q46.1914-38.8184 47.8027-38.8184L68.3594-38.8184L68.3594-59.375Q68.3594-60.9375 69.3359-61.9629Q70.3125-62.9883 71.8262-62.9883Q73.3398-62.9883 74.3652-61.9873Q75.3906-60.9863 75.3906-59.375L75.3906-38.8184L95.9961-38.8184Q97.5586-38.8184 98.5596-37.793Q99.5605-36.7676 99.5605-35.2051Q99.5605-33.7402 98.5352-32.7637Q97.5098-31.7871 95.9961-31.7871L75.3906-31.7871L75.3906-11.1816Q75.3906-9.61914 74.3652-8.61816Q73.3398-7.61719 71.8262-7.61719Q70.3125-7.61719 69.3359-8.64258Q68.3594-9.66797 68.3594-11.1816L68.3594-31.7871L47.8027-31.7871Q46.2402-31.7871 45.2148-32.7637Q44.1895-33.7402 44.1895-35.2051Z"/>
  </g>
  <g id="Thin-L" transform="matrix(1 0 0 1 785.695 1556)">
   <path d="M118.945-83.252Q116.504-85.6934 113.306-87.1094Q110.107-88.5254 105.664-89.1602Q101.221-89.7949 94.9707-89.7949L45.752-89.7949Q37.0117-89.7949 31.6162-88.3057Q26.2207-86.8164 22.6074-83.2031Q18.9453-79.541 17.5049-74.1943Q16.0645-68.8477 16.0645-60.1074L16.0645-10.8887Q16.0645-4.63867 16.6748-0.170898Q17.2852 4.29688 18.7012 7.44629Q20.1172 10.5957 22.5098 13.0371Q25 15.4297 28.1738 16.8457Q31.3477 18.2617 35.791 18.8965Q40.2344 19.5312 46.4844 19.5312L94.9707 19.5312Q101.221 19.5312 105.664 18.8965Q110.107 18.2617 113.306 16.8457Q116.504 15.4297 118.945 13.0371Q121.338 10.5957 122.754 7.42188Q124.17 4.24805 124.78-0.195312Q125.391-4.63867 125.391-10.8887L125.391-59.375Q125.391-65.625 124.78-70.0928Q124.17-74.5605 122.754-77.71Q121.338-80.8594 118.945-83.252ZM43.8477-35.2539Q43.8477-36.1816 44.4336-36.792Q45.0195-37.4023 45.9473-37.4023L68.6523-37.4023L68.6523-60.1562Q68.6523-60.9863 69.2627-61.6211Q69.873-62.2559 70.6543-62.2559Q71.5332-62.2559 72.168-61.6455Q72.8027-61.0352 72.8027-60.1562L72.8027-37.4023L95.5566-37.4023Q96.4844-37.4023 97.0703-36.792Q97.6562-36.1816 97.6562-35.2539Q97.6562-34.4727 97.0459-33.8867Q96.4355-33.3008 95.5566-33.3008L72.8027-33.3008L72.8027-10.5469Q72.8027-9.66797 72.168-9.05762Q71.5332-8.44727 70.6543-8.44727Q69.873-8.44727 69.2627-9.05762Q68.6523-9.66797 68.6523-10.5469L68.6523-33.3008L45.9473-33.3008Q45.0684-33.3008 44.458-33.8867Q43.8477-34.4727 43.8477-35.2539Z"/>
  </g>
  <g id="Ultralight-L" transform="matrix(1 0 0 1 489.57 1556)">
   <path d="M117.969-82.8613Q115.674-85.0586 112.695-86.4746Q109.717-87.8906 105.322-88.5254Q100.928-89.1602 94.4824-89.1602L44.9707-89.1602Q36.0352-89.1602 30.9082-87.6465Q25.7812-86.1328 22.4121-82.7637Q19.043-79.3457 17.5537-74.292Q16.0645-69.2383 16.0645-60.3027L16.0645-10.7422Q16.0645-4.24805 16.6992 0.146484Q17.334 4.54102 18.7012 7.49512Q20.0684 10.4492 22.3145 12.6465Q24.6582 14.9414 27.6367 16.3086Q30.6152 17.6758 34.9854 18.335Q39.3555 18.9941 45.8008 18.9941L94.4824 18.9941Q100.928 18.9941 105.322 18.335Q109.717 17.6758 112.72 16.3086Q115.723 14.9414 117.969 12.6465Q120.215 10.4004 121.582 7.44629Q122.949 4.49219 123.584 0.12207Q124.219-4.24805 124.219-10.7422L124.219-59.4238Q124.219-65.918 123.584-70.3125Q122.949-74.707 121.582-77.6855Q120.215-80.6641 117.969-82.8613ZM43.6523-35.2539Q43.6523-35.791 44.043-36.2305Q44.4336-36.6699 44.9707-36.6699L68.8477-36.6699L68.8477-60.498Q68.8477-61.0352 69.2383-61.4502Q69.6289-61.8652 70.0684-61.8652Q70.6055-61.8652 71.0449-61.4746Q71.4844-61.084 71.4844-60.498L71.4844-36.6699L95.3125-36.6699Q95.9473-36.6699 96.2891-36.2305Q96.6309-35.791 96.6309-35.2539Q96.6309-34.8633 96.2402-34.4482Q95.8496-34.0332 95.3125-34.0332L71.4844-34.0332L71.4844-10.1562Q71.4844-9.61914 71.0449-9.22852Q70.6055-8.83789 70.0684-8.83789Q69.6289-8.83789 69.2383-9.25293Q68.8477-9.66797 68.8477-10.1562L68.8477-34.0332L44.9707-34.0332Q44.4824-34.0332 44.0674-34.4482Q43.6523-34.8633 43.6523-35.2539Z"/>
  </g>
  <g id="Black-M" transform="matrix(1 0 0 1 2873.15 1126)">
   <path d="M101.123-75.9766Q97.168-79.8828 91.748-81.4453Q86.3281-83.0078 77.832-83.0078L42.6758-83.0078Q34.1797-83.0078 28.7354-81.4453Q23.291-79.8828 19.3848-75.9766Q15.5273-72.1191 13.9893-66.748Q12.4512-61.377 12.4512-52.7832L12.4512-17.627Q12.4512-9.0332 13.9893-3.66211Q15.5273 1.70898 19.3848 5.56641Q23.3398 9.47266 28.7598 11.0352Q34.1797 12.5977 42.6758 12.5977L77.832 12.5977Q86.3281 12.5977 91.7725 11.0352Q97.2168 9.47266 101.123 5.56641Q104.98 1.70898 106.519-3.66211Q108.057-9.0332 108.057-17.627L108.057-52.7832Q108.057-61.377 106.519-66.7725Q104.98-72.168 101.123-75.9766ZM38.0859-35.2539Q38.0859-38.3789 40.1123-40.4541Q42.1387-42.5293 45.166-42.5293L52.9785-42.5293L52.9785-50.3906Q52.9785-53.418 55.0781-55.4199Q57.1777-57.4219 60.2539-57.4219Q63.3789-57.4219 65.4541-55.4199Q67.5293-53.418 67.5293-50.3906L67.5293-42.5293L75.3906-42.5293Q78.418-42.5293 80.4199-40.4541Q82.4219-38.3789 82.4219-35.2539Q82.4219-32.1777 80.4199-30.0781Q78.418-27.9785 75.3906-27.9785L67.5293-27.9785L67.5293-20.166Q67.5293-17.1387 65.4541-15.1123Q63.3789-13.0859 60.2539-13.0859Q57.1777-13.0859 55.0781-15.1123Q52.9785-17.1387 52.9785-20.166L52.9785-27.9785L45.166-27.9785Q42.1387-27.9785 40.1123-30.0781Q38.0859-32.1777 38.0859-35.2539Z"/>
  </g>
  <g id="Heavy-M" transform="matrix(1 0 0 1 2577.24 1126)">
   <path d="M99.8047-75.4883Q95.8984-79.3457 90.5518-80.7861Q85.2051-82.2266 77.1973-82.2266L41.6504-82.2266Q33.7402-82.2266 28.3447-80.7861Q22.9492-79.3457 19.0918-75.4883Q15.2832-71.6797 13.8672-66.3574Q12.4512-61.0352 12.4512-53.0273L12.4512-17.4316Q12.4512-9.42383 13.8672-4.10156Q15.2832 1.2207 19.0918 5.0293Q22.998 8.93555 28.3691 10.3516Q33.7402 11.7676 41.6992 11.7676L77.1973 11.7676Q85.2051 11.7676 90.5762 10.3516Q95.9473 8.93555 99.8047 5.0293Q103.662 1.2207 105.054-4.10156Q106.445-9.42383 106.445-17.4316L106.445-52.9785Q106.445-61.0352 105.054-66.3818Q103.662-71.7285 99.8047-75.4883ZM37.2559-35.2539Q37.2559-38.0859 39.0869-39.9658Q40.918-41.8457 43.7012-41.8457L52.8809-41.8457L52.8809-51.0742Q52.8809-53.8086 54.7607-55.6396Q56.6406-57.4707 59.4238-57.4707Q62.2559-57.4707 64.1357-55.6396Q66.0156-53.8086 66.0156-51.0742L66.0156-41.8457L75.2441-41.8457Q77.9785-41.8457 79.8096-39.9658Q81.6406-38.0859 81.6406-35.2539Q81.6406-32.4707 79.8096-30.5908Q77.9785-28.7109 75.2441-28.7109L66.0156-28.7109L66.0156-19.4824Q66.0156-16.748 64.1357-14.917Q62.2559-13.0859 59.4238-13.0859Q56.6406-13.0859 54.7607-14.917Q52.8809-16.748 52.8809-19.4824L52.8809-28.7109L43.7012-28.7109Q40.918-28.7109 39.0869-30.5908Q37.2559-32.4707 37.2559-35.2539Z"/>
  </g>
  <g id="Bold-M" transform="matrix(1 0 0 1 2281.41 1126)">
   <path d="M98.3887-74.9512Q94.5312-78.8086 89.2334-80.0781Q83.9355-81.3477 76.5625-81.3477L40.5273-81.3477Q33.2031-81.3477 27.9053-80.0781Q22.6074-78.8086 18.7988-74.9512Q14.9902-71.1914 13.7207-65.9424Q12.4512-60.6934 12.4512-53.3203L12.4512-17.2852Q12.4512-9.86328 13.7207-4.58984Q14.9902 0.683594 18.7988 4.49219Q22.6562 8.30078 27.9297 9.59473Q33.2031 10.8887 40.5762 10.8887L76.5625 10.8887Q83.9355 10.8887 89.2334 9.59473Q94.5312 8.30078 98.3887 4.49219Q102.148 0.683594 103.418-4.58984Q104.688-9.86328 104.688-17.2852L104.688-53.2227Q104.688-60.6445 103.418-65.918Q102.148-71.1914 98.3887-74.9512ZM36.377-35.2539Q36.377-37.793 38.0127-39.4287Q39.6484-41.0645 42.0898-41.0645L52.832-41.0645L52.832-51.8066Q52.832-54.2969 54.4678-55.9082Q56.1035-57.5195 58.5449-57.5195Q61.084-57.5195 62.7197-55.9082Q64.3555-54.2969 64.3555-51.8066L64.3555-41.0645L75.1465-41.0645Q77.5879-41.0645 79.1992-39.4287Q80.8105-37.793 80.8105-35.2539Q80.8105-32.8125 79.1992-31.1768Q77.5879-29.541 75.1465-29.541L64.3555-29.541L64.3555-18.75Q64.3555-16.3086 62.7197-14.6973Q61.084-13.0859 58.5449-13.0859Q56.1035-13.0859 54.4678-14.6973Q52.832-16.3086 52.832-18.75L52.832-29.541L42.0898-29.541Q39.6484-29.541 38.0127-31.1768Q36.377-32.8125 36.377-35.2539Z"/>
  </g>
  <g id="Semibold-M" transform="matrix(1 0 0 1 1985.31 1126)">
   <path d="M97.3633-74.5605Q93.5547-78.3691 88.2812-79.5654Q83.0078-80.7617 76.0742-80.7617L39.7461-80.7617Q32.8613-80.7617 27.6123-79.5654Q22.3633-78.3691 18.5547-74.5605Q14.7949-70.8008 13.623-65.6006Q12.4512-60.4004 12.4512-53.4668L12.4512-17.1387Q12.4512-10.1562 13.5986-4.93164Q14.7461 0.292969 18.5547 4.05273Q22.3633 7.86133 27.6123 9.05762Q32.8613 10.2539 39.7949 10.2539L76.0742 10.2539Q83.0078 10.2539 88.2812 9.05762Q93.5547 7.86133 97.3633 4.05273Q101.123 0.292969 102.295-4.93164Q103.467-10.1562 103.467-17.1387L103.467-53.3691Q103.467-60.4004 102.295-65.625Q101.123-70.8496 97.3633-74.5605ZM35.7422-35.2051Q35.7422-37.5 37.207-38.9648Q38.6719-40.4297 40.9668-40.4297L52.7832-40.4297L52.7832-52.2949Q52.7832-54.541 54.2236-56.0059Q55.6641-57.4707 57.9102-57.4707Q60.2539-57.4707 61.7188-56.0303Q63.1836-54.5898 63.1836-52.2949L63.1836-40.4297L75.0488-40.4297Q77.2949-40.4297 78.7354-38.9648Q80.1758-37.5 80.1758-35.2051Q80.1758-32.959 78.7354-31.5186Q77.2949-30.0781 75.0488-30.0781L63.1836-30.0781L63.1836-18.1641Q63.1836-15.9668 61.7188-14.502Q60.2539-13.0371 57.9102-13.0371Q55.6641-13.0371 54.2236-14.502Q52.7832-15.9668 52.7832-18.1641L52.7832-30.0781L40.9668-30.0781Q38.6719-30.0781 37.207-31.5186Q35.7422-32.959 35.7422-35.2051Z"/>
  </g>
  <g id="Medium-M" transform="matrix(1 0 0 1 1689.06 1126)">
   <path d="M96.582-74.3164Q92.8223-78.0762 87.5977-79.1748Q82.373-80.2734 75.7324-80.2734L39.1602-80.2734Q32.5684-80.2734 27.3682-79.1748Q22.168-78.0762 18.3594-74.3164Q14.6484-70.5566 13.5498-65.3809Q12.4512-60.2051 12.4512-53.6133L12.4512-17.041Q12.4512-10.3516 13.5254-5.15137Q14.5996 0.0488281 18.3594 3.75977Q22.168 7.56836 27.3682 8.66699Q32.5684 9.76562 39.209 9.76562L75.7324 9.76562Q82.373 9.76562 87.5977 8.66699Q92.8223 7.56836 96.582 3.75977Q100.342 0.0488281 101.44-5.15137Q102.539-10.3516 102.539-17.041L102.539-53.5156Q102.539-60.1562 101.44-65.3564Q100.342-70.5566 96.582-74.3164ZM35.3027-35.2051Q35.3027-37.3047 36.6699-38.6719Q38.0371-40.0391 40.1367-40.0391L52.7344-40.0391L52.7344-52.6855Q52.7344-54.7852 54.0771-56.1279Q55.4199-57.4707 57.4707-57.4707Q59.6191-57.4707 60.9863-56.1523Q62.3535-54.834 62.3535-52.6855L62.3535-40.0391L75-40.0391Q77.0996-40.0391 78.418-38.6719Q79.7363-37.3047 79.7363-35.2051Q79.7363-33.1543 78.418-31.8115Q77.0996-30.4688 75-30.4688L62.3535-30.4688L62.3535-17.7734Q62.3535-15.7227 60.9863-14.3799Q59.6191-13.0371 57.4707-13.0371Q55.4199-13.0371 54.0771-14.3799Q52.7344-15.7227 52.7344-17.7734L52.7344-30.4688L40.1367-30.4688Q38.0371-30.4688 36.6699-31.8115Q35.3027-33.1543 35.3027-35.2051Z"/>
  </g>
  <g id="Regular-M" transform="matrix(1 0 0 1 1392.96 1126)">
   <path d="M95.6055-73.9258Q91.8457-77.6855 86.6699-78.6865Q81.4941-79.6875 75.2441-79.6875L38.3789-79.6875Q32.2266-79.6875 27.0752-78.6865Q21.9238-77.6855 18.1641-73.9258Q14.4531-70.2148 13.4521-65.0879Q12.4512-59.9609 12.4512-53.8086L12.4512-16.8945Q12.4512-10.6445 13.4277-5.49316Q14.4043-0.341797 18.1641 3.36914Q21.9238 7.12891 27.0752 8.12988Q32.2266 9.13086 38.4766 9.13086L75.2441 9.13086Q81.4941 9.13086 86.6699 8.12988Q91.8457 7.12891 95.6055 3.36914Q99.3164-0.341797 100.317-5.49316Q101.318-10.6445 101.318-16.8945L101.318-53.6621Q101.318-59.9121 100.317-65.0635Q99.3164-70.2148 95.6055-73.9258ZM34.668-35.2051Q34.668-37.1094 35.8887-38.3057Q37.1094-39.502 39.0137-39.502L52.6855-39.502L52.6855-53.1738Q52.6855-55.0781 53.833-56.2988Q54.9805-57.5195 56.8359-57.5195Q58.7891-57.5195 59.9854-56.3232Q61.1816-55.127 61.1816-53.1738L61.1816-39.502L74.9023-39.502Q76.7578-39.502 77.9541-38.3057Q79.1504-37.1094 79.1504-35.2051Q79.1504-33.3496 77.9541-32.2021Q76.7578-31.0547 74.9023-31.0547L61.1816-31.0547L61.1816-17.2852Q61.1816-15.4297 59.9854-14.2334Q58.7891-13.0371 56.8359-13.0371Q54.9805-13.0371 53.833-14.2334Q52.6855-15.4297 52.6855-17.2852L52.6855-31.0547L39.0137-31.0547Q37.1094-31.0547 35.8887-32.2021Q34.668-33.3496 34.668-35.2051Z"/>
  </g>
  <g id="Light-M" transform="matrix(1 0 0 1 1097.03 1126)">
   <path d="M94.2871-73.3887Q90.8691-76.7578 86.0596-77.8076Q81.25-78.8574 74.6094-78.8574L37.2559-78.8574Q30.9082-78.8574 26.123-77.8076Q21.3379-76.7578 17.9199-73.3398Q14.5508-69.9707 13.501-65.2344Q12.4512-60.498 12.4512-54.0527L12.4512-16.6992Q12.4512-10.0586 13.4766-5.24902Q14.502-0.439453 17.8711 2.88086Q21.3379 6.29883 26.123 7.34863Q30.9082 8.39844 37.5488 8.39844L74.6094 8.39844Q81.25 8.39844 86.084 7.34863Q90.918 6.29883 94.2871 2.88086Q97.7051-0.439453 98.7305-5.24902Q99.7559-10.0586 99.7559-16.6992L99.7559-53.7598Q99.7559-60.4004 98.7305-65.21Q97.7051-70.0195 94.2871-73.3887ZM34.4238-35.2051Q34.4238-36.6699 35.3516-37.5977Q36.2793-38.5254 37.7441-38.5254L52.9297-38.5254L52.9297-53.6621Q52.9297-55.127 53.8086-56.0547Q54.6875-56.9824 56.0547-56.9824Q57.5684-56.9824 58.4961-56.0791Q59.4238-55.1758 59.4238-53.6621L59.4238-38.5254L74.6094-38.5254Q76.0254-38.5254 76.9287-37.5977Q77.832-36.6699 77.832-35.2051Q77.832-33.8379 76.9043-32.9346Q75.9766-32.0312 74.6094-32.0312L59.4238-32.0312L59.4238-16.7969Q59.4238-15.3809 58.4961-14.4775Q57.5684-13.5742 56.0547-13.5742Q54.6875-13.5742 53.8086-14.502Q52.9297-15.4297 52.9297-16.7969L52.9297-32.0312L37.7441-32.0312Q36.3281-32.0312 35.376-32.9346Q34.4238-33.8379 34.4238-35.2051Z"/>
  </g>
  <g id="Thin-M" transform="matrix(1 0 0 1 801.344 1126)">
   <path d="M92.5781-72.6074Q89.6484-75.5859 85.2783-76.6846Q80.9082-77.7832 73.7793-77.7832L35.791-77.7832Q29.1504-77.7832 24.8291-76.6357Q20.5078-75.4883 17.5781-72.6074Q14.6484-69.6289 13.5498-65.3809Q12.4512-61.1328 12.4512-54.3945L12.4512-16.4551Q12.4512-9.22852 13.5254-4.90723Q14.5996-0.585938 17.5293 2.29492Q20.5078 5.22461 24.8535 6.32324Q29.1992 7.42188 36.3281 7.42188L73.7793 7.42188Q80.9082 7.42188 85.2783 6.32324Q89.6484 5.22461 92.5781 2.29492Q95.5078-0.634766 96.6064-4.93164Q97.7051-9.22852 97.7051-16.4551L97.7051-53.9062Q97.7051-61.084 96.6064-65.4297Q95.5078-69.7754 92.5781-72.6074ZM34.082-35.2539Q34.082-36.084 34.6436-36.6455Q35.2051-37.207 36.0352-37.207L53.1738-37.207L53.1738-54.3945Q53.1738-55.1758 53.7354-55.7617Q54.2969-56.3477 55.0293-56.3477Q55.8594-56.3477 56.4453-55.7861Q57.0312-55.2246 57.0312-54.3945L57.0312-37.207L74.1699-37.207Q75-37.207 75.5615-36.6455Q76.123-36.084 76.123-35.2539Q76.123-34.4727 75.5615-33.9355Q75-33.3984 74.1699-33.3984L57.0312-33.3984L57.0312-16.2598Q57.0312-15.4297 56.4453-14.8682Q55.8594-14.3066 55.0293-14.3066Q54.2969-14.3066 53.7354-14.8682Q53.1738-15.4297 53.1738-16.2598L53.1738-33.3984L36.0352-33.3984Q35.2051-33.3984 34.6436-33.9355Q34.082-34.4727 34.082-35.2539Z"/>
  </g>
  <g id="Ultralight-M" transform="matrix(1 0 0 1 505.17 1126)">
   <path d="M91.6992-72.2656Q88.9648-74.9512 84.8633-76.0986Q80.7617-77.2461 73.3887-77.2461L35.0586-77.2461Q28.2227-77.2461 24.1699-76.0498Q20.1172-74.8535 17.4316-72.2168Q14.7461-69.4824 13.5986-65.5029Q12.4512-61.5234 12.4512-54.5898L12.4512-16.3086Q12.4512-8.83789 13.5742-4.76074Q14.6973-0.683594 17.334 1.95312Q20.1172 4.6875 24.2188 5.81055Q28.3203 6.93359 35.6934 6.93359L73.3887 6.93359Q80.7617 6.93359 84.8877 5.81055Q89.0137 4.6875 91.6992 1.95312Q94.4336-0.683594 95.5322-4.76074Q96.6309-8.83789 96.6309-16.3086L96.6309-54.0039Q96.6309-61.4258 95.5322-65.5273Q94.4336-69.6289 91.6992-72.2656ZM33.8867-35.2539Q33.8867-35.791 34.2529-36.1816Q34.6191-36.5723 35.1562-36.5723L53.3203-36.5723L53.3203-54.7363Q53.3203-55.2246 53.6865-55.5908Q54.0527-55.957 54.4434-55.957Q55.0293-55.957 55.4199-55.6152Q55.8105-55.2734 55.8105-54.7363L55.8105-36.5723L73.9258-36.5723Q74.4629-36.5723 74.8291-36.1816Q75.1953-35.791 75.1953-35.2539Q75.1953-34.8145 74.8047-34.4238Q74.4141-34.0332 73.9258-34.0332L55.8105-34.0332L55.8105-15.918Q55.8105-15.3809 55.4199-15.0391Q55.0293-14.6973 54.4434-14.6973Q54.0527-14.6973 53.6865-15.0635Q53.3203-15.4297 53.3203-15.918L53.3203-34.0332L35.1562-34.0332Q34.668-34.0332 34.2773-34.4238Q33.8867-34.8145 33.8867-35.2539Z"/>
  </g>
  <g id="Black-S" transform="matrix(1 0 0 1 2885.99 696)">
   <path d="M79.541-67.2852Q76.4648-70.3125 72.2168-71.582Q67.9688-72.8516 61.1328-72.8516L33.6914-72.8516Q26.8555-72.8516 22.583-71.582Q18.3105-70.3125 15.2832-67.2852Q12.2559-64.2578 11.0107-60.0586Q9.76562-55.8594 9.76562-48.9258L9.76562-21.4844Q9.76562-14.5508 11.0107-10.3516Q12.2559-6.15234 15.2832-3.125Q18.3594-0.0976562 22.6074 1.17188Q26.8555 2.44141 33.6914 2.44141L61.1328 2.44141Q67.9688 2.44141 72.2412 1.17188Q76.5137-0.0976562 79.541-3.125Q82.5684-6.15234 83.8135-10.3516Q85.0586-14.5508 85.0586-21.4844L85.0586-48.9258Q85.0586-55.8594 83.8135-60.083Q82.5684-64.3066 79.541-67.2852ZM30.0781-35.2539Q30.0781-37.7441 31.7139-39.4287Q33.3496-41.1133 35.7422-41.1133L41.5527-41.1133L41.5527-46.9238Q41.5527-49.3652 43.2373-50.9766Q44.9219-52.5879 47.4121-52.5879Q49.9023-52.5879 51.5869-50.9766Q53.2715-49.3652 53.2715-46.9238L53.2715-41.1133L59.082-41.1133Q61.5234-41.1133 63.1348-39.4287Q64.7461-37.7441 64.7461-35.2539Q64.7461-32.7637 63.1348-31.0791Q61.5234-29.3945 59.082-29.3945L53.2715-29.3945L53.2715-23.584Q53.2715-21.1914 51.5869-19.5557Q49.9023-17.9199 47.4121-17.9199Q44.9219-17.9199 43.2373-19.5557Q41.5527-21.1914 41.5527-23.584L41.5527-29.3945L35.7422-29.3945Q33.3496-29.3945 31.7139-31.0791Q30.0781-32.7637 30.0781-35.2539Z"/>
  </g>
  <g id="Heavy-S" transform="matrix(1 0 0 1 2589.86 696)">
   <path d="M78.6133-66.9434Q75.4883-69.9707 71.2646-71.1182Q67.041-72.2656 60.6934-72.2656L32.959-72.2656Q26.6602-72.2656 22.3877-71.1182Q18.1152-69.9707 15.0879-66.9434Q12.0117-63.916 10.8887-59.7168Q9.76562-55.5176 9.76562-49.1211L9.76562-21.3379Q9.76562-14.9414 10.8887-10.7422Q12.0117-6.54297 15.0879-3.51562Q18.1641-0.488281 22.4121 0.683594Q26.6602 1.85547 32.959 1.85547L60.6934 1.85547Q67.041 1.85547 71.2891 0.683594Q75.5371-0.488281 78.6133-3.51562Q81.6406-6.54297 82.7637-10.7422Q83.8867-14.9414 83.8867-21.3379L83.8867-49.0723Q83.8867-55.5176 82.7637-59.7168Q81.6406-63.916 78.6133-66.9434ZM29.3945-35.2539Q29.3945-37.5488 30.9082-39.0869Q32.4219-40.625 34.668-40.625L41.4551-40.625L41.4551-47.4609Q41.4551-49.707 42.9688-51.1963Q44.4824-52.6855 46.7773-52.6855Q49.1211-52.6855 50.6592-51.1963Q52.1973-49.707 52.1973-47.4609L52.1973-40.625L58.9844-40.625Q61.2305-40.625 62.7441-39.0869Q64.2578-37.5488 64.2578-35.2539Q64.2578-32.959 62.7441-31.4209Q61.2305-29.8828 58.9844-29.8828L52.1973-29.8828L52.1973-23.0957Q52.1973-20.8496 50.6592-19.3604Q49.1211-17.8711 46.7773-17.8711Q44.4824-17.8711 42.9688-19.3604Q41.4551-20.8496 41.4551-23.0957L41.4551-29.8828L34.668-29.8828Q32.4219-29.8828 30.9082-31.4209Q29.3945-32.959 29.3945-35.2539Z"/>
  </g>
  <g id="Bold-S" transform="matrix(1 0 0 1 2293.79 696)">
   <path d="M77.5391-66.5527Q74.4629-69.6289 70.2148-70.6543Q65.9668-71.6797 60.2051-71.6797L32.1777-71.6797Q26.416-71.6797 22.168-70.6543Q17.9199-69.6289 14.8438-66.5527Q11.7676-63.5254 10.7666-59.3262Q9.76562-55.127 9.76562-49.3164L9.76562-21.2402Q9.76562-15.4297 10.7666-11.2305Q11.7676-7.03125 14.8438-3.95508Q17.9199-0.878906 22.168 0.146484Q26.416 1.17188 32.1777 1.17188L60.2051 1.17188Q65.9668 1.17188 70.2393 0.146484Q74.5117-0.878906 77.5391-3.95508Q80.6152-7.03125 81.6162-11.2305Q82.6172-15.4297 82.6172-21.2402L82.6172-49.2676Q82.6172-55.127 81.6162-59.3262Q80.6152-63.5254 77.5391-66.5527ZM28.6621-35.2539Q28.6621-37.3535 30.0293-38.7451Q31.3965-40.1367 33.4473-40.1367L41.3574-40.1367L41.3574-48.0469Q41.3574-50.0977 42.7246-51.4404Q44.0918-52.7832 46.1426-52.7832Q48.291-52.7832 49.6582-51.4404Q51.0254-50.0977 51.0254-48.0469L51.0254-40.1367L58.9355-40.1367Q60.9863-40.1367 62.3535-38.7451Q63.7207-37.3535 63.7207-35.2539Q63.7207-33.2031 62.3535-31.8359Q60.9863-30.4688 58.9355-30.4688L51.0254-30.4688L51.0254-22.5098Q51.0254-20.5078 49.6582-19.1406Q48.291-17.7734 46.1426-17.7734Q44.0918-17.7734 42.7246-19.1406Q41.3574-20.5078 41.3574-22.5098L41.3574-30.4688L33.4473-30.4688Q31.3965-30.4688 30.0293-31.8359Q28.6621-33.2031 28.6621-35.2539Z"/>
  </g>
  <g id="Semibold-S" transform="matrix(1 0 0 1 1997.54 696)">
   <path d="M76.8066-66.3086Q73.6816-69.3848 69.458-70.3125Q65.2344-71.2402 59.8633-71.2402L31.5918-71.2402Q26.2207-71.2402 21.9727-70.3125Q17.7246-69.3848 14.6484-66.3086Q11.5723-63.2324 10.6689-59.0332Q9.76562-54.834 9.76562-49.4141L9.76562-21.0938Q9.76562-15.7227 10.6689-11.5234Q11.5723-7.32422 14.6484-4.24805Q17.7734-1.17188 21.9971-0.219727Q26.2207 0.732422 31.5918 0.732422L59.8633 0.732422Q65.2344 0.732422 69.4824-0.219727Q73.7305-1.17188 76.8066-4.24805Q79.8828-7.32422 80.7861-11.5234Q81.6895-15.7227 81.6895-21.0938L81.6895-49.4141Q81.6895-54.834 80.7861-59.0332Q79.8828-63.2324 76.8066-66.3086ZM28.125-35.2051Q28.125-37.1582 29.3701-38.4277Q30.6152-39.6973 32.5684-39.6973L41.2109-39.6973L41.2109-48.3887Q41.2109-50.293 42.4805-51.5381Q43.75-52.7832 45.6543-52.7832Q47.6562-52.7832 48.9014-51.5381Q50.1465-50.293 50.1465-48.3887L50.1465-39.6973L58.8379-39.6973Q60.791-39.6973 62.0361-38.4277Q63.2812-37.1582 63.2812-35.2051Q63.2812-33.3008 62.0361-32.0312Q60.791-30.7617 58.8379-30.7617L50.1465-30.7617L50.1465-22.0703Q50.1465-20.166 48.9014-18.9209Q47.6562-17.6758 45.6543-17.6758Q43.75-17.6758 42.4805-18.9209Q41.2109-20.166 41.2109-22.0703L41.2109-30.7617L32.5684-30.7617Q30.6152-30.7617 29.3701-32.0312Q28.125-33.3008 28.125-35.2051Z"/>
  </g>
  <g id="Medium-S" transform="matrix(1 0 0 1 1701.17 696)">
   <path d="M76.2695-66.0645Q73.1445-69.1895 68.9209-70.0439Q64.6973-70.8984 59.6191-70.8984L31.1523-70.8984Q26.0742-70.8984 21.8506-70.0439Q17.627-69.1895 14.502-66.0645Q11.4746-63.0371 10.6201-58.8379Q9.76562-54.6387 9.76562-49.5117L9.76562-21.0449Q9.76562-15.9668 10.6201-11.7676Q11.4746-7.56836 14.502-4.44336Q17.627-1.36719 21.8506-0.512695Q26.0742 0.341797 31.1523 0.341797L59.6191 0.341797Q64.6973 0.341797 68.9453-0.512695Q73.1934-1.36719 76.2695-4.44336Q79.3457-7.56836 80.1758-11.7676Q81.0059-15.9668 81.0059-21.0449L81.0059-49.4629Q81.0059-54.6387 80.1758-58.8379Q79.3457-63.0371 76.2695-66.0645ZM27.7344-35.2051Q27.7344-37.0605 28.9062-38.2324Q30.0781-39.4043 31.9336-39.4043L41.1621-39.4043L41.1621-48.6816Q41.1621-50.5371 42.334-51.709Q43.5059-52.8809 45.3125-52.8809Q47.2168-52.8809 48.3643-51.709Q49.5117-50.5371 49.5117-48.6816L49.5117-39.4043L58.8379-39.4043Q60.6445-39.4043 61.8164-38.2324Q62.9883-37.0605 62.9883-35.2051Q62.9883-33.3984 61.8164-32.2266Q60.6445-31.0547 58.8379-31.0547L49.5117-31.0547L49.5117-21.7773Q49.5117-19.9707 48.3643-18.7988Q47.2168-17.627 45.3125-17.627Q43.5059-17.627 42.334-18.7988Q41.1621-19.9707 41.1621-21.7773L41.1621-31.0547L31.9336-31.0547Q30.0781-31.0547 28.9062-32.2266Q27.7344-33.3984 27.7344-35.2051Z"/>
  </g>
  <g id="Regular-S" transform="matrix(1 0 0 1 1404.9 696)">
   <path d="M75.5371-65.8203Q72.4121-68.9453 68.1885-69.7021Q63.9648-70.459 59.2773-70.459L30.6152-70.459Q25.9277-70.459 21.7041-69.7021Q17.4805-68.9453 14.3555-65.8203Q11.2793-62.7441 10.5225-58.5449Q9.76562-54.3457 9.76562-49.6582L9.76562-20.9473Q9.76562-16.2598 10.5225-12.0605Q11.2793-7.86133 14.3555-4.73633Q17.4805-1.66016 21.7041-0.878906Q25.9277-0.0976562 30.6152-0.0976562L59.2773-0.0976562Q63.9648-0.0976562 68.2129-0.878906Q72.4609-1.66016 75.5371-4.73633Q78.6133-7.86133 79.3701-12.0605Q80.127-16.2598 80.127-20.9473L80.127-49.6094Q80.127-54.3457 79.3701-58.5449Q78.6133-62.7441 75.5371-65.8203ZM27.2461-35.2051Q27.2461-36.9141 28.3203-37.9883Q29.3945-39.0625 31.1523-39.0625L41.1133-39.0625L41.1133-49.0723Q41.1133-50.7812 42.1631-51.8555Q43.2129-52.9297 44.873-52.9297Q46.6309-52.9297 47.6807-51.8555Q48.7305-50.7812 48.7305-49.0723L48.7305-39.0625L58.7891-39.0625Q60.4492-39.0625 61.5479-37.9883Q62.6465-36.9141 62.6465-35.2051Q62.6465-33.5449 61.5479-32.4951Q60.4492-31.4453 58.7891-31.4453L48.7305-31.4453L48.7305-21.3867Q48.7305-19.7266 47.6807-18.6523Q46.6309-17.5781 44.873-17.5781Q43.2129-17.5781 42.1631-18.6523Q41.1133-19.7266 41.1133-21.3867L41.1133-31.4453L31.1523-31.4453Q29.3945-31.4453 28.3203-32.4951Q27.2461-33.5449 27.2461-35.2051Z"/>
  </g>
  <g id="Light-S" transform="matrix(1 0 0 1 1108.87 696)">
   <path d="M74.3652-65.332Q71.582-68.1152 67.6758-68.9209Q63.7695-69.7266 58.7402-69.7266L29.6387-69.7266Q24.7559-69.7266 20.8496-68.9209Q16.9434-68.1152 14.1602-65.2832Q11.377-62.5488 10.5713-58.667Q9.76562-54.7852 9.76562-49.9023L9.76562-20.8008Q9.76562-15.7227 10.5713-11.8408Q11.377-7.95898 14.1113-5.17578Q16.9434-2.39258 20.8496-1.5625Q24.7559-0.732422 29.7852-0.732422L58.7402-0.732422Q63.7695-0.732422 67.7002-1.5625Q71.6309-2.39258 74.3652-5.17578Q77.1484-7.95898 77.9541-11.8408Q78.7598-15.7227 78.7598-20.8008L78.7598-49.707Q78.7598-54.7852 77.9541-58.667Q77.1484-62.5488 74.3652-65.332ZM27.0508-35.2051Q27.0508-36.5234 27.8809-37.3535Q28.7109-38.1836 30.0293-38.1836L41.3574-38.1836L41.3574-49.5117Q41.3574-50.7812 42.1631-51.6113Q42.9688-52.4414 44.1895-52.4414Q45.5566-52.4414 46.3623-51.6357Q47.168-50.8301 47.168-49.5117L47.168-38.1836L58.5449-38.1836Q59.8145-38.1836 60.6689-37.3535Q61.5234-36.5234 61.5234-35.2051Q61.5234-33.9355 60.6689-33.1299Q59.8145-32.3242 58.5449-32.3242L47.168-32.3242L47.168-20.9473Q47.168-19.6777 46.3623-18.8721Q45.5566-18.0664 44.1895-18.0664Q42.9688-18.0664 42.1631-18.8965Q41.3574-19.7266 41.3574-20.9473L41.3574-32.3242L30.0293-32.3242Q28.7109-32.3242 27.8809-33.1299Q27.0508-33.9355 27.0508-35.2051Z"/>
  </g>
  <g id="Thin-S" transform="matrix(1 0 0 1 813.087 696)">
   <path d="M72.8516-64.6484Q70.459-67.041 66.9678-67.8955Q63.4766-68.75 57.959-68.75L28.3691-68.75Q23.1934-68.75 19.7266-67.8711Q16.2598-66.9922 13.8672-64.6484Q11.4746-62.2559 10.6201-58.8379Q9.76562-55.4199 9.76562-50.1953L9.76562-20.5566Q9.76562-15.0391 10.6201-11.5479Q11.4746-8.05664 13.8184-5.71289Q16.2109-3.36914 19.7266-2.49023Q23.2422-1.61133 28.7109-1.61133L57.959-1.61133Q63.4766-1.61133 66.9922-2.49023Q70.5078-3.36914 72.8516-5.71289Q75.2441-8.10547 76.0742-11.5723Q76.9043-15.0391 76.9043-20.5566L76.9043-49.8047Q76.9043-55.3711 76.0742-58.8379Q75.2441-62.3047 72.8516-64.6484ZM26.7578-35.2539Q26.7578-36.0352 27.2461-36.5479Q27.7344-37.0605 28.5645-37.0605L41.6016-37.0605L41.6016-50.1465Q41.6016-50.8789 42.0898-51.3916Q42.5781-51.9043 43.3105-51.9043Q44.0918-51.9043 44.6045-51.3916Q45.1172-50.8789 45.1172-50.1465L45.1172-37.0605L58.2031-37.0605Q58.9355-37.0605 59.4482-36.5479Q59.9609-36.0352 59.9609-35.2539Q59.9609-34.5215 59.4482-34.0332Q58.9355-33.5449 58.2031-33.5449L45.1172-33.5449L45.1172-20.459Q45.1172-19.7266 44.6045-19.2139Q44.0918-18.7012 43.3105-18.7012Q42.5781-18.7012 42.0898-19.2139Q41.6016-19.7266 41.6016-20.459L41.6016-33.5449L28.5645-33.5449Q27.7832-33.5449 27.2705-34.0332Q26.7578-34.5215 26.7578-35.2539Z"/>
  </g>
  <g id="Ultralight-S" transform="matrix(1 0 0 1 516.84 696)">
   <path d="M72.0703-64.3066Q69.9219-66.5039 66.626-67.3828Q63.3301-68.2617 57.6172-68.2617L27.6855-68.2617Q22.3633-68.2617 19.1162-67.3584Q15.8691-66.4551 13.7207-64.2578Q11.5723-62.1094 10.6689-58.9111Q9.76562-55.7129 9.76562-50.3418L9.76562-20.459Q9.76562-14.6484 10.6445-11.4014Q11.5234-8.1543 13.6719-6.00586Q15.8691-3.85742 19.1406-2.9541Q22.4121-2.05078 28.1738-2.05078L57.6172-2.05078Q63.3301-2.05078 66.626-2.9541Q69.9219-3.85742 72.0703-6.00586Q74.2676-8.20312 75.1221-11.4258Q75.9766-14.6484 75.9766-20.459L75.9766-49.9023Q75.9766-55.6641 75.1221-58.9355Q74.2676-62.207 72.0703-64.3066ZM26.6113-35.2539Q26.6113-35.7422 26.9287-36.1084Q27.2461-36.4746 27.7832-36.4746L41.748-36.4746L41.748-50.4395Q41.748-50.8789 42.0654-51.2207Q42.3828-51.5625 42.8223-51.5625Q43.3594-51.5625 43.7012-51.2451Q44.043-50.9277 44.043-50.4395L44.043-36.4746L58.0078-36.4746Q58.4961-36.4746 58.8379-36.1084Q59.1797-35.7422 59.1797-35.2539Q59.1797-34.8145 58.8379-34.4727Q58.4961-34.1309 58.0078-34.1309L44.043-34.1309L44.043-20.166Q44.043-19.6777 43.7012-19.3604Q43.3594-19.043 42.8223-19.043Q42.3828-19.043 42.0654-19.3848Q41.748-19.7266 41.748-20.166L41.748-34.1309L27.7832-34.1309Q27.2949-34.1309 26.9531-34.4727Q26.6113-34.8145 26.6113-35.2539Z"/>
  </g>
 </g>
</svg>
